<svg xmlns="http://www.w3.org/2000/svg">
  <symbol id="add-icon-btn" viewBox="0 0 23 16">
    <path d="M14.5 8C16.71 8 18.5 6.21 18.5 4C18.5 1.79 16.71 0 14.5 0C12.29 0 10.5 1.79 10.5 4C10.5 6.21 12.29 8 14.5 8ZM5.5 6V3H3.5V6H0.5V8H3.5V11H5.5V8H8.5V6H5.5ZM14.5 10C11.83 10 6.5 11.34 6.5 14V16H22.5V14C22.5 11.34 17.17 10 14.5 10Z"/>
  </symbol>
  <symbol id="add-icon-form" viewBox="0 0 14 14">
    <path fill-rule="evenodd" clip-rule="evenodd" d="M6.99998 3.66671C6.63331 3.66671 6.33331 3.96671 6.33331 4.33337V6.33337H4.33331C3.96665 6.33337 3.66665 6.63337 3.66665 7.00004C3.66665 7.36671 3.96665 7.66671 4.33331 7.66671H6.33331V9.66671C6.33331 10.0334 6.63331 10.3334 6.99998 10.3334C7.36665 10.3334 7.66665 10.0334 7.66665 9.66671V7.66671H9.66665C10.0333 7.66671 10.3333 7.36671 10.3333 7.00004C10.3333 6.63337 10.0333 6.33337 9.66665 6.33337H7.66665V4.33337C7.66665 3.96671 7.36665 3.66671 6.99998 3.66671ZM6.99998 0.333374C3.31998 0.333374 0.333313 3.32004 0.333313 7.00004C0.333313 10.68 3.31998 13.6667 6.99998 13.6667C10.68 13.6667 13.6666 10.68 13.6666 7.00004C13.6666 3.32004 10.68 0.333374 6.99998 0.333374ZM6.99998 12.3334C4.05998 12.3334 1.66665 9.94004 1.66665 7.00004C1.66665 4.06004 4.05998 1.66671 6.99998 1.66671C9.93998 1.66671 12.3333 4.06004 12.3333 7.00004C12.3333 9.94004 9.93998 12.3334 6.99998 12.3334Z"/>
  </symbol>
  <symbol id="arrow" viewBox="0 0 12 12">
    <path d="M2 6L2.705 6.705L5.5 3.915L5.5 10L6.5 10L6.5 3.915L9.29 6.71L10 6L6 2L2 6Z" />
  </symbol>
  <symbol id="cancel" viewBox="0 0 16 16">
    <path d="M8 2C4.682 2 2 4.682 2 8C2 11.318 4.682 14 8 14C11.318 14 14 11.318 14 8C14 4.682 11.318 2 8 2ZM8 12.8C5.354 12.8 3.2 10.646 3.2 8C3.2 5.354 5.354 3.2 8 3.2C10.646 3.2 12.8 5.354 12.8 8C12.8 10.646 10.646 12.8 8 12.8ZM10.154 5L8 7.154L5.846 5L5 5.846L7.154 8L5 10.154L5.846 11L8 8.846L10.154 11L11 10.154L8.846 8L11 5.846L10.154 5Z" fill="#F06A4D"/>
  </symbol>
  <symbol id="close-form" viewBox="0 0 29 29">
    <path fill-rule="evenodd" clip-rule="evenodd" d="M22.2332 7.73333L21.2665 6.76666L14.4998 13.5334L7.73318 6.7667L6.76652 7.73336L13.5332 14.5L6.76654 21.2667L7.73321 22.2333L14.4998 15.4667L21.2665 22.2334L22.2332 21.2667L15.4665 14.5L22.2332 7.73333Z"/>
  </symbol>
  <symbol id="edit" viewBox="0 0 16 16">
    <path d="M2 11.5V14H4.5L11.8733 6.62662L9.37333 4.12662L2 11.5ZM13.8067 4.69329C14.0667 4.43329 14.0667 4.01329 13.8067 3.75329L12.2467 2.19329C11.9867 1.93329 11.5667 1.93329 11.3067 2.19329L10.0867 3.41329L12.5867 5.91329L13.8067 4.69329Z" fill="#9873FF"/>
  </symbol>
  <symbol id="fb" viewBox="0 0 16 16">
    <path d="M7.99999 0C3.6 0 0 3.60643 0 8.04819C0 12.0643 2.928 15.3976 6.75199 16V10.3775H4.71999V8.04819H6.75199V6.27309C6.75199 4.25703 7.94399 3.14859 9.77599 3.14859C10.648 3.14859 11.56 3.30121 11.56 3.30121V5.28514H10.552C9.55999 5.28514 9.24799 5.90362 9.24799 6.53815V8.04819H11.472L11.112 10.3775H9.24799V16C11.1331 15.7011 12.8497 14.7354 14.0879 13.2772C15.3261 11.819 16.0043 9.96437 16 8.04819C16 3.60643 12.4 0 7.99999 0Z" fill="#9873FF"/>
  </symbol>
  <symbol id="load-form" viewBox="0 0 16 16">
    <path d="M3.00008 8.03996C3.00008 10.8234 5.2566 13.08 8.04008 13.08C10.8236 13.08 13.0801 10.8234 13.0801 8.03996C13.0801 5.25648 10.8236 2.99996 8.04008 2.99996C7.38922 2.99996 6.7672 3.1233 6.196 3.348" stroke="#B89EFF" stroke-width="2" stroke-miterlimit="10" stroke-linecap="round"/>
  </symbol>
  <symbol id="loader-list" viewBox="0 0 40 40">
    <path d="M2 20C2 29.941 10.059 38 20 38C29.941 38 38 29.941 38 20C38 10.059 29.941 2 20 2C17.6755 2 15.454 2.4405 13.414 3.243" stroke="#9873FF" stroke-width="4" stroke-miterlimit="10" stroke-linecap="round"/>
  </symbol>
  <symbol id="logo" viewBox="0 0 50 50">
    <circle cx="25" cy="25" r="25" fill="#9873FF"/>
    <path d="M17.2617 29.082C17.2617 30.0898 16.9102 30.8574 16.207 31.3848C15.5098 31.9121 14.4639 32.1758 13.0693 32.1758C12.3545 32.1758 11.7451 32.126 11.2412 32.0264C10.7373 31.9326 10.2656 31.792 9.82617 31.6045V29.3896C10.3242 29.624 10.8838 29.8203 11.5049 29.9785C12.1318 30.1367 12.6826 30.2158 13.1572 30.2158C14.1299 30.2158 14.6162 29.9346 14.6162 29.3721C14.6162 29.1611 14.5518 28.9912 14.4229 28.8623C14.2939 28.7275 14.0713 28.5781 13.7549 28.4141C13.4385 28.2441 13.0166 28.0479 12.4893 27.8252C11.7334 27.5088 11.1768 27.2158 10.8193 26.9463C10.4678 26.6768 10.21 26.3691 10.0459 26.0234C9.8877 25.6719 9.80859 25.2412 9.80859 24.7314C9.80859 23.8584 10.1455 23.1846 10.8193 22.71C11.499 22.2295 12.46 21.9893 13.7021 21.9893C14.8857 21.9893 16.0371 22.2471 17.1562 22.7627L16.3477 24.6963C15.8555 24.4854 15.3955 24.3125 14.9678 24.1777C14.54 24.043 14.1035 23.9756 13.6582 23.9756C12.8672 23.9756 12.4717 24.1895 12.4717 24.6172C12.4717 24.8574 12.5977 25.0654 12.8496 25.2412C13.1074 25.417 13.667 25.6777 14.5283 26.0234C15.2959 26.334 15.8584 26.624 16.2158 26.8936C16.5732 27.1631 16.8369 27.4736 17.0068 27.8252C17.1768 28.1768 17.2617 28.5957 17.2617 29.082ZM21.9287 26.6562L23.0977 25.1621L25.8486 22.1738H28.8721L24.9697 26.4365L29.1094 32H26.0156L23.1855 28.0186L22.0342 28.9414V32H19.3535V18.3242H22.0342V24.4238L21.8936 26.6562H21.9287ZM35.9824 21.9893C37.1426 21.9893 38.0508 22.4434 38.707 23.3516C39.3633 24.2539 39.6914 25.4932 39.6914 27.0693C39.6914 28.6924 39.3516 29.9492 38.6719 30.8398C37.998 31.7305 37.0781 32.1758 35.9121 32.1758C34.7578 32.1758 33.8525 31.7568 33.1963 30.9189H33.0117L32.5635 32H30.5156V18.3242H33.1963V21.5059C33.1963 21.9102 33.1611 22.5576 33.0908 23.4482H33.1963C33.8232 22.4756 34.752 21.9893 35.9824 21.9893ZM35.1211 24.1338C34.459 24.1338 33.9756 24.3389 33.6709 24.749C33.3662 25.1533 33.208 25.8242 33.1963 26.7617V27.0518C33.1963 28.1064 33.3516 28.8623 33.6621 29.3193C33.9785 29.7764 34.4766 30.0049 35.1562 30.0049C35.707 30.0049 36.1436 29.7529 36.4658 29.249C36.7939 28.7393 36.958 28.001 36.958 27.0342C36.958 26.0674 36.7939 25.3438 36.4658 24.8633C36.1377 24.377 35.6895 24.1338 35.1211 24.1338ZM41.5283 30.7432C41.5283 30.251 41.6602 29.8789 41.9238 29.627C42.1875 29.375 42.5713 29.249 43.0752 29.249C43.5615 29.249 43.9365 29.3779 44.2002 29.6357C44.4697 29.8936 44.6045 30.2627 44.6045 30.7432C44.6045 31.2061 44.4697 31.5723 44.2002 31.8418C43.9307 32.1055 43.5557 32.2373 43.0752 32.2373C42.583 32.2373 42.2021 32.1084 41.9326 31.8506C41.6631 31.5869 41.5283 31.2178 41.5283 30.7432Z" fill="white"/>
  </symbol>
  <symbol id="contact-other" viewBox="0 0 16 16">
    <path fill-rule="evenodd" clip-rule="evenodd" d="M8 16C12.4183 16 16 12.4183 16 8C16 3.58172 12.4183 0 8 0C3.58172 0 0 3.58172 0 8C0 12.4183 3.58172 16 8 16ZM3 8C3 5.24 5.24 3 8 3C10.76 3 13 5.24 13 8C13 10.76 10.76 13 8 13C5.24 13 3 10.76 3 8ZM9.5 6C9.5 5.17 8.83 4.5 8 4.5C7.17 4.5 6.5 5.17 6.5 6C6.5 6.83 7.17 7.5 8 7.5C8.83 7.5 9.5 6.83 9.5 6ZM5 9.99C5.645 10.96 6.75 11.6 8 11.6C9.25 11.6 10.355 10.96 11 9.99C10.985 8.995 8.995 8.45 8 8.45C7 8.45 5.015 8.995 5 9.99Z" fill="#9873FF"/>
  </symbol>
  <symbol id="mail" viewBox="0 0 16 16">
    <path fill-rule="evenodd" clip-rule="evenodd" d="M8 16C12.4183 16 16 12.4183 16 8C16 3.58172 12.4183 0 8 0C3.58172 0 0 3.58172 0 8C0 12.4183 3.58172 16 8 16ZM4 5.75C4 5.3375 4.36 5 4.8 5H11.2C11.64 5 12 5.3375 12 5.75V10.25C12 10.6625 11.64 11 11.2 11H4.8C4.36 11 4 10.6625 4 10.25V5.75ZM8.424 8.1275L11.04 6.59375C11.14 6.53375 11.2 6.4325 11.2 6.32375C11.2 6.0725 10.908 5.9225 10.68 6.05375L8 7.625L5.32 6.05375C5.092 5.9225 4.8 6.0725 4.8 6.32375C4.8 6.4325 4.86 6.53375 4.96 6.59375L7.576 8.1275C7.836 8.28125 8.164 8.28125 8.424 8.1275Z" fill="#9873FF"/>
  </symbol>
  <symbol id="phone" viewBox="0 0 16 16">
    <circle cx="8" cy="8" r="8" fill="#9873FF"/>
    <path  d="M11.56 9.50222C11.0133 9.50222 10.4844 9.41333 9.99111 9.25333C9.83556 9.2 9.66222 9.24 9.54222 9.36L8.84444 10.2356C7.58667 9.63556 6.40889 8.50222 5.78222 7.2L6.64889 6.46222C6.76889 6.33778 6.80444 6.16444 6.75556 6.00889C6.59111 5.51556 6.50667 4.98667 6.50667 4.44C6.50667 4.2 6.30667 4 6.06667 4H4.52889C4.28889 4 4 4.10667 4 4.44C4 8.56889 7.43556 12 11.56 12C11.8756 12 12 11.72 12 11.4756V9.94222C12 9.70222 11.8 9.50222 11.56 9.50222Z" fill="white"/>
  </symbol>
  <symbol id="select-icon" viewBox="0 0 10 6">
    <path d="M0.495029 0.689971C0.250029 0.934971 0.250029 1.32997 0.495029 1.57497L4.65003 5.72997C4.84503 5.92497 5.16003 5.92497 5.35503 5.72997L9.51003 1.57497C9.75503 1.32997 9.75503 0.934971 9.51003 0.689971C9.26503 0.444971 8.87003 0.444971 8.62503 0.689971L5.00003 4.30997L1.37503 0.684972C1.13503 0.444972 0.735029 0.444971 0.495029 0.689971Z" fill="#9873FF"/>
  </symbol>
  <symbol id="vk" viewBox="0 0 16 16">
    <path d="M8 0C3.58187 0 0 3.58171 0 8C0 12.4183 3.58187 16 8 16C12.4181 16 16 12.4183 16 8C16 3.58171 12.4181 0 8 0ZM12.058 8.86523C12.4309 9.22942 12.8254 9.57217 13.1601 9.97402C13.3084 10.1518 13.4482 10.3356 13.5546 10.5423C13.7065 10.8371 13.5693 11.1604 13.3055 11.1779L11.6665 11.1776C11.2432 11.2126 10.9064 11.0419 10.6224 10.7525C10.3957 10.5219 10.1853 10.2755 9.96698 10.037C9.87777 9.93915 9.78382 9.847 9.67186 9.77449C9.44843 9.62914 9.2543 9.67366 9.1263 9.90707C8.99585 10.1446 8.96606 10.4078 8.95362 10.6721C8.93577 11.0586 8.81923 11.1596 8.43147 11.1777C7.60291 11.2165 6.81674 11.0908 6.08606 10.6731C5.44147 10.3047 4.94257 9.78463 4.50783 9.19587C3.66126 8.04812 3.01291 6.78842 2.43036 5.49254C2.29925 5.2007 2.39517 5.04454 2.71714 5.03849C3.25205 5.02817 3.78697 5.02948 4.32188 5.03799C4.53958 5.04143 4.68362 5.166 4.76726 5.37142C5.05633 6.08262 5.4107 6.75928 5.85477 7.38684C5.97311 7.55396 6.09391 7.72059 6.26594 7.83861C6.45582 7.9689 6.60051 7.92585 6.69005 7.71388C6.74734 7.57917 6.77205 7.43513 6.78449 7.29076C6.82705 6.79628 6.83212 6.30195 6.75847 5.80943C6.71263 5.50122 6.53929 5.30218 6.23206 5.24391C6.07558 5.21428 6.0985 5.15634 6.17461 5.06697C6.3067 4.91245 6.43045 4.81686 6.67777 4.81686L8.52951 4.81653C8.82136 4.87382 8.88683 5.00477 8.92645 5.29874L8.92808 7.35656C8.92464 7.47032 8.98521 7.80751 9.18948 7.88198C9.35317 7.936 9.4612 7.80473 9.55908 7.70112C10.0032 7.22987 10.3195 6.67368 10.6029 6.09801C10.7279 5.84413 10.8358 5.58142 10.9406 5.31822C11.0185 5.1236 11.1396 5.02785 11.3593 5.03112L13.1424 5.03325C13.195 5.03325 13.2483 5.03374 13.3004 5.04274C13.6009 5.09414 13.6832 5.22345 13.5903 5.5166C13.4439 5.97721 13.1596 6.36088 12.8817 6.74553C12.5838 7.15736 12.2661 7.55478 11.9711 7.96841C11.7001 8.34652 11.7215 8.53688 12.058 8.86523Z" fill="#9873FF"/>
  </symbol>
  <symbol id="cancel-input" viewBox="0 0 12 12">
    <path d="M6 0C2.682 0 0 2.682 0 6C0 9.318 2.682 12 6 12C9.318 12 12 9.318 12 6C12 2.682 9.318 0 6 0ZM6 10.8C3.354 10.8 1.2 8.646 1.2 6C1.2 3.354 3.354 1.2 6 1.2C8.646 1.2 10.8 3.354 10.8 6C10.8 8.646 8.646 10.8 6 10.8ZM8.154 3L6 5.154L3.846 3L3 3.846L5.154 6L3 8.154L3.846 9L6 6.846L8.154 9L9 8.154L6.846 6L9 3.846L8.154 3Z"/>
  </symbol>
  <symbol id="tooltip-arrow" viewBox="0 0 16 14">
    <svg  fill="none" xmlns="http://www.w3.org/2000/svg">
      <path d="M8.17717 13.2761L0.303447 0.795407L15.8942 0.795405L8.17717 13.2761Z" fill="#333"/>
    </svg>
  </symbol>
</svg>
